<svg width="512" height="512" viewBox="0 0 512 512" fill="none" xmlns="http://www.w3.org/2000/svg">
<path d="M467 0H45C20.1472 0 0 20.1472 0 45V467C0 491.853 20.1472 512 45 512H467C491.853 512 512 491.853 512 467V45C512 20.1472 491.853 0 467 0Z" fill="#082233"/>
<path d="M271 430V395H57V430H271Z" fill="#96823C"/>
<path d="M271.5 384.5V349.5H109.5V384.5H271.5Z" fill="#796930"/>
<path d="M389 208V173H275V208H389Z" fill="#244B64"/>
<path d="M271.5 294.5V259.5H190.5V294.5H271.5Z" fill="#50451F"/>
<path d="M355.5 253.5V218.5H274.5V253.5H355.5Z" fill="#1B394D"/>
<path d="M427 163V128H275V163H427Z" fill="#326789"/>
<path d="M456 118V83L275 83V118L456 118Z" fill="#418AB9"/>
<path d="M271.5 339.5V304.5H149.5V339.5H271.5Z" fill="#695B29"/>
</svg>
