<svg width="512" height="512" viewBox="0 0 512 512" fill="none" xmlns="http://www.w3.org/2000/svg">
<path d="M467 0H45C20.1472 0 0 20.1472 0 45V467C0 491.853 20.1472 512 45 512H467C491.853 512 512 491.853 512 467V45C512 20.1472 491.853 0 467 0Z" fill="#082233"/>
<path d="M331.5 256.5C331.519 246.472 329.514 236.542 325.606 227.307C323.717 222.847 321.401 218.58 318.69 214.567C315.997 210.584 312.931 206.867 309.532 203.467C306.132 200.068 302.415 197.002 298.432 194.309C294.418 191.598 290.152 189.283 285.692 187.394C276.457 183.486 266.528 181.481 256.5 181.5V106.5C266.653 106.497 276.781 107.518 286.73 109.547C296.381 111.524 305.812 114.452 314.886 118.288C323.806 122.064 332.339 126.696 340.366 132.117C348.332 137.502 355.766 143.636 362.566 150.434C369.364 157.234 375.498 164.668 380.883 172.634C386.304 180.661 390.936 189.194 394.712 198.113C398.548 207.187 401.476 216.618 403.453 226.269C405.481 236.218 406.502 246.346 406.5 256.5H331.5Z" fill="#96823C"/>
<path d="M256.5 331.5C266.528 331.519 276.458 329.514 285.693 325.606C290.153 323.717 294.42 321.401 298.433 318.69C302.416 315.997 306.133 312.931 309.533 309.532C312.932 306.132 315.998 302.415 318.691 298.432C321.402 294.418 323.717 290.152 325.606 285.692C329.514 276.457 331.519 266.528 331.5 256.5H406.5C406.503 266.653 405.482 276.781 403.453 286.73C401.476 296.381 398.548 305.812 394.712 314.886C390.936 323.806 386.304 332.339 380.883 340.366C375.498 348.332 369.364 355.766 362.566 362.566C355.766 369.364 348.332 375.498 340.366 380.883C332.339 386.304 323.806 390.936 314.887 394.712C305.813 398.548 296.382 401.476 286.731 403.453C276.782 405.481 266.654 406.502 256.5 406.5V331.5Z" fill="#98553A"/>
<path d="M181.5 256.5C181.481 266.528 183.486 276.458 187.394 285.693C189.283 290.153 191.599 294.42 194.31 298.433C197.003 302.416 200.069 306.133 203.468 309.533C206.868 312.932 210.585 315.998 214.568 318.691C218.582 321.402 222.848 323.717 227.308 325.606C236.543 329.514 246.472 331.519 256.5 331.5V406.5C246.347 406.503 236.219 405.482 226.27 403.453C216.619 401.476 207.188 398.548 198.114 394.712C189.194 390.936 180.661 386.304 172.634 380.883C164.668 375.498 157.234 369.364 150.434 362.566C143.636 355.766 137.502 348.332 132.117 340.366C126.696 332.339 122.064 323.806 118.288 314.887C114.452 305.813 111.524 296.382 109.547 286.731C107.519 276.782 106.498 266.654 106.5 256.5H181.5Z" fill="#244B64"/>
<path d="M256.5 181.5C246.472 181.481 236.542 183.486 227.307 187.394C222.847 189.283 218.58 191.599 214.567 194.31C210.584 197.003 206.867 200.069 203.467 203.468C200.068 206.868 197.002 210.585 194.309 214.568C191.598 218.582 189.283 222.848 187.394 227.308C183.486 236.543 181.481 246.472 181.5 256.5H106.5C106.497 246.347 107.518 236.219 109.547 226.27C111.524 216.619 114.452 207.188 118.288 198.114C122.064 189.194 126.696 180.661 132.117 172.634C137.502 164.668 143.636 157.234 150.434 150.434C157.234 143.636 164.668 137.502 172.634 132.117C180.661 126.696 189.194 122.064 198.113 118.288C207.187 114.452 216.618 111.524 226.269 109.547C236.218 107.519 246.346 106.498 256.5 106.5V181.5Z" fill="#650306"/>
</svg>
