<svg width="512" height="512" viewBox="0 0 512 512" fill="none" xmlns="http://www.w3.org/2000/svg">
<path d="M467 0H45C20.1472 0 0 20.1472 0 45V467C0 491.853 20.1472 512 45 512H467C491.853 512 512 491.853 512 467V45C512 20.1472 491.853 0 467 0Z" fill="#082233"/>
<path d="M78.5 70.254V265.5" stroke="#707070" stroke-width="5"/>
<path d="M447.5 265.5H76.5" stroke="#707070" stroke-width="5"/>
<path d="M80.5 399.061V460.5" stroke="#707070" stroke-width="5"/>
<path d="M449.5 460.5H78.5" stroke="#707070" stroke-width="5"/>
<path d="M168 205H108V263H168V205Z" fill="#98553A"/>
<path d="M247 182H187V263H247V182Z" fill="#98553A"/>
<path d="M326 155H266V263H326V155Z" fill="#98553A"/>
<path d="M405 117H345V263H405V117Z" fill="#98553A"/>
<path d="M251 437.54H236V458H251V437.54Z" fill="url(#paint0_linear)"/>
<path d="M272 429.426H257V458H272V429.426Z" fill="url(#paint1_linear)"/>
<path d="M293 419.901H278V458H293V419.901Z" fill="url(#paint2_linear)"/>
<path d="M314 406.496H299V458H314V406.496Z" fill="url(#paint3_linear)"/>
<path d="M335 398.54H320V458H335V398.54Z" fill="url(#paint4_linear)"/>
<path d="M356 390.426H341V458H356V390.426Z" fill="url(#paint5_linear)"/>
<path d="M377 382.901H362V458H377V382.901Z" fill="url(#paint6_linear)"/>
<path d="M398 376.496H383V458H398V376.496Z" fill="url(#paint7_linear)"/>
<path d="M167 437.54H152V458H167V437.54Z" fill="url(#paint8_linear)"/>
<path d="M188 429.426H173V458H188V429.426Z" fill="url(#paint9_linear)"/>
<path d="M209 434.901H194V458H209V434.901Z" fill="url(#paint10_linear)"/>
<path d="M230 441.496H215V458H230V441.496Z" fill="url(#paint11_linear)"/>
<path d="M321.5 400.5H230.5V478.5H321.5V400.5Z" stroke="black"/>
<path d="M104 429.426H89V458H104V429.426Z" fill="url(#paint12_linear)"/>
<path d="M125 434.901H110V458H125V434.901Z" fill="url(#paint13_linear)"/>
<path d="M146 441.496H131V458H146V441.496Z" fill="url(#paint14_linear)"/>
<path d="M419 390.426H404V458H419V390.426Z" fill="url(#paint15_linear)"/>
<path d="M440 382.901H425V458H440V382.901Z" fill="url(#paint16_linear)"/>
<defs>
<linearGradient id="paint0_linear" x1="243.5" y1="437.54" x2="243.5" y2="458" gradientUnits="userSpaceOnUse">
<stop stop-color="#8E8E8E"/>
<stop offset="1" stop-color="#474747" stop-opacity="0.271"/>
</linearGradient>
<linearGradient id="paint1_linear" x1="264.5" y1="429.426" x2="264.5" y2="458" gradientUnits="userSpaceOnUse">
<stop stop-color="#8E8E8E"/>
<stop offset="1" stop-color="#474747" stop-opacity="0.271"/>
</linearGradient>
<linearGradient id="paint2_linear" x1="285.5" y1="419.901" x2="285.5" y2="458" gradientUnits="userSpaceOnUse">
<stop stop-color="#8E8E8E"/>
<stop offset="1" stop-color="#474747" stop-opacity="0.271"/>
</linearGradient>
<linearGradient id="paint3_linear" x1="306.5" y1="406.496" x2="306.5" y2="458" gradientUnits="userSpaceOnUse">
<stop stop-color="#8E8E8E"/>
<stop offset="1" stop-color="#474747" stop-opacity="0.271"/>
</linearGradient>
<linearGradient id="paint4_linear" x1="327.5" y1="398.54" x2="327.5" y2="458" gradientUnits="userSpaceOnUse">
<stop stop-color="#8E8E8E"/>
<stop offset="1" stop-color="#474747" stop-opacity="0.271"/>
</linearGradient>
<linearGradient id="paint5_linear" x1="348.5" y1="390.426" x2="348.5" y2="458" gradientUnits="userSpaceOnUse">
<stop stop-color="#8E8E8E"/>
<stop offset="1" stop-color="#474747" stop-opacity="0.271"/>
</linearGradient>
<linearGradient id="paint6_linear" x1="369.5" y1="382.901" x2="369.5" y2="458" gradientUnits="userSpaceOnUse">
<stop stop-color="#8E8E8E"/>
<stop offset="1" stop-color="#474747" stop-opacity="0.271"/>
</linearGradient>
<linearGradient id="paint7_linear" x1="390.5" y1="376.496" x2="390.5" y2="458" gradientUnits="userSpaceOnUse">
<stop stop-color="#8E8E8E"/>
<stop offset="1" stop-color="#474747" stop-opacity="0.271"/>
</linearGradient>
<linearGradient id="paint8_linear" x1="159.5" y1="437.54" x2="159.5" y2="458" gradientUnits="userSpaceOnUse">
<stop stop-color="#8E8E8E"/>
<stop offset="1" stop-color="#474747" stop-opacity="0.271"/>
</linearGradient>
<linearGradient id="paint9_linear" x1="180.5" y1="429.426" x2="180.5" y2="458" gradientUnits="userSpaceOnUse">
<stop stop-color="#8E8E8E"/>
<stop offset="1" stop-color="#474747" stop-opacity="0.271"/>
</linearGradient>
<linearGradient id="paint10_linear" x1="201.5" y1="434.901" x2="201.5" y2="458" gradientUnits="userSpaceOnUse">
<stop stop-color="#8E8E8E"/>
<stop offset="1" stop-color="#474747" stop-opacity="0.271"/>
</linearGradient>
<linearGradient id="paint11_linear" x1="222.5" y1="441.496" x2="222.5" y2="458" gradientUnits="userSpaceOnUse">
<stop stop-color="#8E8E8E"/>
<stop offset="1" stop-color="#474747" stop-opacity="0.271"/>
</linearGradient>
<linearGradient id="paint12_linear" x1="96.5" y1="429.426" x2="96.5" y2="458" gradientUnits="userSpaceOnUse">
<stop stop-color="#8E8E8E"/>
<stop offset="1" stop-color="#474747" stop-opacity="0.271"/>
</linearGradient>
<linearGradient id="paint13_linear" x1="117.5" y1="434.901" x2="117.5" y2="458" gradientUnits="userSpaceOnUse">
<stop stop-color="#8E8E8E"/>
<stop offset="1" stop-color="#474747" stop-opacity="0.271"/>
</linearGradient>
<linearGradient id="paint14_linear" x1="138.5" y1="441.496" x2="138.5" y2="458" gradientUnits="userSpaceOnUse">
<stop stop-color="#8E8E8E"/>
<stop offset="1" stop-color="#474747" stop-opacity="0.271"/>
</linearGradient>
<linearGradient id="paint15_linear" x1="411.5" y1="390.426" x2="411.5" y2="458" gradientUnits="userSpaceOnUse">
<stop stop-color="#8E8E8E"/>
<stop offset="1" stop-color="#474747" stop-opacity="0.271"/>
</linearGradient>
<linearGradient id="paint16_linear" x1="432.5" y1="382.901" x2="432.5" y2="458" gradientUnits="userSpaceOnUse">
<stop stop-color="#8E8E8E"/>
<stop offset="1" stop-color="#474747" stop-opacity="0.271"/>
</linearGradient>
</defs>
</svg>
