<svg width="512" height="512" viewBox="0 0 512 512" fill="none" xmlns="http://www.w3.org/2000/svg">
<path d="M467 0H45C20.1472 0 0 20.1472 0 45V467C0 491.853 20.1472 512 45 512H467C491.853 512 512 491.853 512 467V45C512 20.1472 491.853 0 467 0Z" fill="#082233"/>
<path d="M385.5 246.999H255V116.499C263.833 116.497 272.645 117.385 281.3 119.15C289.697 120.868 297.904 123.414 305.8 126.75C313.56 130.036 320.984 134.065 327.967 138.782C334.897 143.467 341.365 148.803 347.281 154.717C353.195 160.633 358.531 167.101 363.216 174.031C367.932 181.015 371.96 188.439 375.244 196.199C378.58 204.095 381.126 212.301 382.844 220.699C384.609 229.354 385.497 238.166 385.495 246.999H385.5Z" fill="#244B64"/>
<path d="M240 394.5C231.167 394.502 222.355 393.614 213.7 391.849C205.302 390.131 197.096 387.585 189.2 384.249C181.44 380.964 174.016 376.935 167.033 372.218C160.103 367.533 153.636 362.197 147.719 356.283C141.805 350.367 136.469 343.899 131.784 336.969C127.069 329.985 123.04 322.56 119.755 314.8C116.419 306.904 113.874 298.697 112.155 290.3C110.389 281.645 109.499 272.834 109.5 264C109.498 255.167 110.386 246.355 112.151 237.7C113.869 229.302 116.415 221.096 119.751 213.2C123.037 205.44 127.067 198.017 131.783 191.033C136.468 184.103 141.804 177.635 147.718 171.719C153.634 165.805 160.102 160.469 167.032 155.784C174.016 151.068 181.44 147.039 189.2 143.755C197.096 140.419 205.303 137.874 213.7 136.155C222.355 134.389 231.166 133.499 240 133.5V263.5H240.1L346.225 339.825C342.034 345.682 337.369 351.186 332.278 356.28C326.362 362.194 319.894 367.53 312.964 372.215C305.982 376.931 298.559 380.96 290.8 384.244C282.904 387.58 274.698 390.126 266.3 391.844C257.645 393.611 248.834 394.501 240 394.5Z" fill="#96823C"/>
<path d="M271.1 259.5H360.044L401.501 259.529C401.501 259.635 401.501 259.739 401.501 259.844V260.001C401.503 268.834 400.615 277.646 398.85 286.301C397.131 294.698 394.586 302.905 391.25 310.801C387.964 318.561 383.935 325.985 379.218 332.968C378.645 333.817 378.061 334.659 377.466 335.496L271.1 259.5Z" fill="#98553A"/>
</svg>
