<svg width="512" height="512" viewBox="0 0 512 512" fill="none" xmlns="http://www.w3.org/2000/svg">
<path d="M467 0H45C20.1472 0 0 20.1472 0 45V467C0 491.853 20.1472 512 45 512H467C491.853 512 512 491.853 512 467V45C512 20.1472 491.853 0 467 0Z" fill="#082233"/>
<path d="M78.5 70.254V431.5" stroke="#707070" stroke-width="5"/>
<path d="M447.697 431.5H78.5" stroke="#707070" stroke-width="5"/>
<path d="M256.5 196.5L352.5 332.5L256.5 196.5ZM424.5 93.5L352.5 325.5L424.5 93.5ZM256.5 196.5L182.5 306.5L256.5 196.5ZM110.5 196.5L182.5 306.5L110.5 196.5Z" fill="#75B3BE"/>
<path d="M109.5 352.5L417.006 244.228Z" fill="#96823C"/>
<path d="M109.5 352.5L417.006 244.228" stroke="#96823C" stroke-width="5"/>
<path d="M109.5 370C119.165 370 127 362.165 127 352.5C127 342.835 119.165 335 109.5 335C99.835 335 92 342.835 92 352.5C92 362.165 99.835 370 109.5 370Z" fill="#96823C"/>
<path d="M417 263C426.665 263 434.5 255.165 434.5 245.5C434.5 235.835 426.665 228 417 228C407.335 228 399.5 235.835 399.5 245.5C399.5 255.165 407.335 263 417 263Z" fill="#96823C"/>
<path d="M114.587 182.632L410.878 335.749" stroke="#98553A" stroke-width="5"/>
<path d="M102.213 195.007C109.047 201.841 120.128 201.841 126.962 195.007C133.796 188.173 133.796 177.092 126.962 170.258C120.128 163.424 109.047 163.424 102.213 170.258C95.3789 177.092 95.3789 188.173 102.213 195.007Z" fill="#98553A"/>
<path d="M398.377 347.874C405.211 354.708 416.291 354.708 423.126 347.874C429.96 341.04 429.96 329.96 423.126 323.125C416.291 316.291 405.211 316.291 398.377 323.125C391.543 329.96 391.543 341.04 398.377 347.874Z" fill="#98553A"/>
<path d="M115.587 138.632L411.751 207.5" stroke="#98553A" stroke-width="5"/>
<path d="M103.213 151.007C110.047 157.841 121.127 157.841 127.962 151.007C134.796 144.173 134.796 133.092 127.962 126.258C121.127 119.424 110.047 119.424 103.213 126.258C96.3786 133.092 96.3786 144.173 103.213 151.007Z" fill="#98553A"/>
<path d="M399.377 219.874C406.211 226.708 417.291 226.708 424.126 219.874C430.96 213.04 430.96 201.959 424.126 195.125C417.291 188.291 406.211 188.291 399.377 195.125C392.543 201.959 392.543 213.04 399.377 219.874Z" fill="#98553A"/>
<path d="M111.5 295.5L419.265 162.586Z" fill="#96823C"/>
<path d="M111.5 295.5L419.265 162.586" stroke="#96823C" stroke-width="5"/>
<path d="M111.5 313C121.165 313 129 305.165 129 295.5C129 285.835 121.165 278 111.5 278C101.835 278 94 285.835 94 295.5C94 305.165 101.835 313 111.5 313Z" fill="#96823C"/>
<path d="M419 180C428.665 180 436.5 172.165 436.5 162.5C436.5 152.835 428.665 145 419 145C409.335 145 401.5 152.835 401.5 162.5C401.5 172.165 409.335 180 419 180Z" fill="#96823C"/>
</svg>
