<svg width="512" height="512" viewBox="0 0 512 512" fill="none" xmlns="http://www.w3.org/2000/svg">
<path d="M467 0H45C20.1472 0 0 20.1472 0 45V467C0 491.853 20.1472 512 45 512H467C491.853 512 512 491.853 512 467V45C512 20.1472 491.853 0 467 0Z" fill="#082233"/>
<path d="M78.5 70.254V431.5" stroke="#707070" stroke-width="5"/>
<path d="M447.697 431.5H78.5" stroke="#707070" stroke-width="5"/>
<path d="M78.5 245.5C78.5 245.5 135.974 503.192 258.67 320.406C381.366 137.62 447.5 250.5 447.5 250.5V432.081H78.5V245.5Z" fill="url(#paint0_linear)"/>
<path d="M78.5 153.5C78.5 153.5 106.966 107.733 157.718 119.118C188.9 126.118 260.579 165.365 287.861 166.694C328.572 168.675 447.5 119.118 447.5 119.118V340.081H78.5V153.5Z" fill="url(#paint1_linear)"/>
<defs>
<linearGradient id="paint0_linear" x1="263" y1="216.031" x2="263" y2="432.081" gradientUnits="userSpaceOnUse">
<stop stop-color="#96823C"/>
<stop offset="1" stop-color="#9C8948" stop-opacity="0.102"/>
</linearGradient>
<linearGradient id="paint1_linear" x1="263" y1="117.299" x2="263" y2="340.081" gradientUnits="userSpaceOnUse">
<stop stop-color="#98553A"/>
<stop offset="0.433" stop-color="#6F3E2A" stop-opacity="0.463"/>
<stop offset="1" stop-color="#4C2B1D" stop-opacity="0"/>
</linearGradient>
</defs>
</svg>
