<svg width="512" height="512" viewBox="0 0 512 512" fill="none" xmlns="http://www.w3.org/2000/svg">
<path d="M467 0H45C20.1472 0 0 20.1472 0 45V467C0 491.853 20.1472 512 45 512H467C491.853 512 512 491.853 512 467V45C512 20.1472 491.853 0 467 0Z" fill="#082233"/>
<path d="M144 256C144 255.833 144 255.667 144 255.5C143.998 247.885 144.764 240.289 146.285 232.827C147.768 225.589 149.965 218.516 152.841 211.71C155.673 205.02 159.147 198.62 163.213 192.6C167.252 186.626 171.852 181.05 176.951 175.95C182.051 170.852 187.627 166.251 193.601 162.212C199.622 158.146 206.021 154.672 212.711 151.839C219.516 148.963 226.59 146.767 233.828 145.284C241.126 143.796 248.552 143.031 256 143V158C249.567 158.031 243.153 158.694 236.85 159.98C230.578 161.265 224.448 163.168 218.55 165.661C212.752 168.116 207.205 171.127 201.987 174.651C196.81 178.151 191.978 182.138 187.558 186.556C183.139 190.976 179.153 195.808 175.652 200.986C172.128 206.204 169.118 211.75 166.663 217.548C164.17 223.446 162.267 229.575 160.982 235.848C159.662 242.315 158.998 248.899 159 255.5C159 255.667 159 255.833 159 256H144Z" fill="#96823C"/>
<path d="M258.557 143.001C258.724 143.001 258.89 143.001 259.057 143.001C266.669 142.999 274.262 143.768 281.719 145.296C288.955 146.787 296.025 148.992 302.825 151.881C309.514 154.727 315.911 158.216 321.925 162.299C327.899 166.359 333.472 170.979 338.567 176.099C343.665 181.225 348.263 186.825 352.298 192.824C356.363 198.874 359.835 205.302 362.665 212.019C365.54 218.857 367.734 225.962 369.216 233.23C370.704 240.561 371.469 248.02 371.501 255.501H356.508C356.477 249.04 355.814 242.597 354.529 236.265C353.245 229.965 351.343 223.808 348.851 217.882C346.398 212.06 343.389 206.489 339.865 201.246C336.368 196.048 332.383 191.195 327.965 186.753C323.549 182.316 318.72 178.312 313.542 174.794C308.329 171.256 302.785 168.232 296.988 165.765C291.095 163.261 284.967 161.35 278.696 160.059C272.233 158.734 265.653 158.067 259.056 158.069C258.889 158.069 258.723 158.069 258.556 158.069L258.557 143.001Z" fill="#98553A"/>
<path d="M371.5 259.041C371.5 259.208 371.5 259.374 371.5 259.541C371.5 267.154 370.73 274.748 369.2 282.206C367.709 289.443 365.504 296.514 362.615 303.315C359.769 310.004 356.28 316.401 352.197 322.415C348.138 328.39 343.516 333.963 338.397 339.059C333.271 344.158 327.671 348.756 321.672 352.792C315.622 356.858 309.194 360.33 302.477 363.161C295.639 366.037 288.535 368.231 281.266 369.713C273.937 371.202 266.479 371.968 259 372.001V357.001C265.461 356.97 271.904 356.307 278.236 355.022C284.536 353.738 290.693 351.836 296.619 349.343C302.441 346.89 308.012 343.88 313.255 340.356C318.453 336.859 323.306 332.874 327.748 328.456C332.185 324.04 336.189 319.209 339.707 314.031C343.246 308.817 346.27 303.273 348.737 297.475C351.241 291.581 353.152 285.452 354.443 279.18C355.768 272.716 356.435 266.135 356.433 259.537C356.433 259.37 356.433 259.204 356.433 259.037L371.5 259.041Z" fill="#244B64"/>
<path d="M256.5 371.501C256.333 371.501 256.167 371.501 256 371.501C248.385 371.503 240.789 370.737 233.327 369.216C226.089 367.732 219.016 365.536 212.21 362.66C205.52 359.828 199.12 356.354 193.1 352.288C187.126 348.249 181.55 343.649 176.45 338.55C171.352 333.45 166.751 327.874 162.712 321.9C158.646 315.879 155.172 309.48 152.339 302.79C149.463 295.985 147.267 288.911 145.784 281.673C144.296 274.375 143.531 266.949 143.5 259.501H158.5C158.531 265.934 159.194 272.348 160.48 278.651C161.765 284.923 163.668 291.053 166.161 296.951C168.616 302.749 171.627 308.296 175.151 313.514C178.651 318.691 182.638 323.523 187.056 327.943C191.476 332.362 196.308 336.348 201.486 339.849C206.704 343.373 212.25 346.383 218.048 348.838C223.946 351.331 230.075 353.234 236.348 354.519C242.815 355.839 249.399 356.503 256 356.501C256.167 356.501 256.333 356.501 256.5 356.501V371.501Z" fill="#76351F"/>
<path d="M119 256C119 255.8 119 255.598 119 255.395C118.998 246.179 119.934 236.986 121.795 227.959C123.611 219.196 126.297 210.636 129.814 202.406C133.282 194.304 137.531 186.56 142.501 179.282C147.446 172.046 153.072 165.299 159.301 159.134C165.547 152.959 172.367 147.393 179.668 142.51C187.039 137.586 194.867 133.383 203.043 129.958C211.373 126.476 220.024 123.819 228.873 122.026C237.804 120.224 246.889 119.298 256 119.261V137.413C248.132 137.452 240.287 138.256 232.575 139.813C224.906 141.366 217.408 143.669 210.189 146.687C203.102 149.655 196.318 153.298 189.929 157.566C183.602 161.797 177.692 166.62 172.279 171.972C166.879 177.315 162.003 183.162 157.716 189.433C153.408 195.741 149.724 202.453 146.716 209.474C143.668 216.606 141.34 224.025 139.767 231.62C138.154 239.443 137.342 247.41 137.344 255.398C137.344 255.598 137.344 255.8 137.344 256.003L119 256Z" fill="#96823C"/>
<path d="M256 395.347C255.8 395.347 255.597 395.347 255.391 395.347C246.125 395.349 236.882 394.421 227.802 392.576C218.995 390.777 210.386 388.114 202.102 384.625C193.964 381.191 186.177 376.978 178.849 372.045C171.581 367.148 164.797 361.568 158.589 355.383C152.387 349.197 146.79 342.433 141.873 335.183C136.927 327.883 132.7 320.121 129.252 312.005C125.753 303.752 123.081 295.172 121.276 286.392C119.465 277.539 118.533 268.528 118.496 259.492H136.749C136.787 267.295 137.594 275.075 139.158 282.72C140.722 290.331 143.037 297.767 146.07 304.92C149.058 311.954 152.722 318.682 157.009 325.009C161.27 331.29 166.12 337.15 171.495 342.509C176.875 347.87 182.754 352.706 189.053 356.95C195.404 361.224 202.153 364.874 209.206 367.85C216.385 370.874 223.844 373.182 231.476 374.74C239.346 376.339 247.356 377.143 255.386 377.14C255.586 377.14 255.789 377.14 255.995 377.14L256 395.347Z" fill="#76351F"/>
<path d="M393.394 259.5C393.394 259.7 393.394 259.9 393.394 260.1C393.396 269.261 392.478 278.398 390.652 287.375C388.873 296.08 386.238 304.588 382.786 312.775C379.389 320.821 375.221 328.52 370.341 335.763C365.496 342.948 359.976 349.655 353.857 355.792C347.738 361.924 341.048 367.458 333.878 372.318C326.656 377.208 318.976 381.387 310.948 384.796C302.783 388.256 294.296 390.897 285.61 392.681C276.853 394.472 267.94 395.392 259.002 395.43V377.385C266.721 377.348 274.418 376.55 281.981 375.004C289.509 373.458 296.865 371.169 303.941 368.17C310.9 365.216 317.555 361.594 323.815 357.355C330.029 353.143 335.827 348.347 341.129 343.033C346.432 337.715 351.216 331.902 355.415 325.675C359.644 319.397 363.257 312.725 366.202 305.752C369.194 298.656 371.477 291.281 373.018 283.736C374.601 275.956 375.397 268.037 375.395 260.098C375.395 259.898 375.395 259.698 375.395 259.498L393.394 259.5Z" fill="#346D91"/>
<path d="M375.493 255.501C375.456 247.663 374.665 239.847 373.131 232.161C371.6 224.526 369.33 217.057 366.352 209.861C363.429 202.806 359.836 196.046 355.625 189.675C352.335 184.703 348.677 179.985 344.682 175.56L358.07 163.422C362.591 168.454 366.736 173.813 370.47 179.454C375.329 186.805 379.473 194.603 382.847 202.743C386.282 211.048 388.901 219.667 390.668 228.479C392.445 237.378 393.358 246.428 393.395 255.503L375.493 255.501Z" fill="#C9714D"/>
<path d="M396.194 255.5C396.122 246.512 395.212 237.551 393.475 228.732C391.713 219.815 389.096 211.089 385.661 202.673C383.147 196.522 380.2 190.557 376.842 184.822L394.796 174.277C398.545 180.736 401.845 187.445 404.672 194.357C408.634 204.068 411.652 214.137 413.687 224.425C415.703 234.662 416.754 245.065 416.827 255.498L396.194 255.5Z" fill="#E88359"/>
<path d="M378.382 363.754L362.482 349.754C365.926 345.741 369.139 341.534 372.103 337.154C377.081 329.79 381.334 321.961 384.803 313.777C388.326 305.452 391.015 296.799 392.83 287.944C394.694 278.817 395.632 269.525 395.63 260.209C395.63 259.973 395.63 259.737 395.63 259.502H416.83C416.83 259.6 416.83 259.698 416.83 259.796V259.872C416.83 259.984 416.83 260.096 416.83 260.209C416.833 270.957 415.751 281.678 413.601 292.209C411.505 302.426 408.402 312.41 404.337 322.015C400.335 331.459 395.426 340.492 389.681 348.989C386.203 354.124 382.43 359.054 378.381 363.752L378.382 363.754Z" fill="#4289B5"/>
<path d="M423.428 347.65L402.475 336.359C404.604 332.125 406.575 327.748 408.329 323.349C412.245 313.522 415.224 303.347 417.229 292.96C419.295 282.207 420.333 271.282 420.329 260.333C420.329 260.11 420.329 259.887 420.329 259.666V259.502H443.829V259.937C443.829 260.004 443.829 260.07 443.829 260.137C443.829 260.204 443.829 260.27 443.829 260.337C443.833 272.971 442.635 285.578 440.25 297.985C437.935 309.967 434.496 321.704 429.979 333.041C428.011 337.974 425.807 342.888 423.429 347.648L423.428 347.65Z" fill="#57B0E6"/>
</svg>
