<svg width="512" height="512" viewBox="0 0 512 512" fill="none" xmlns="http://www.w3.org/2000/svg">
<path d="M467 0H45C20.1472 0 0 20.1472 0 45V467C0 491.853 20.1472 512 45 512H467C491.853 512 512 491.853 512 467V45C512 20.1472 491.853 0 467 0Z" fill="#082233"/>
<path d="M285 50H218C202.536 50 190 62.536 190 78V96C190 111.464 202.536 124 218 124H285C300.464 124 313 111.464 313 96V78C313 62.536 300.464 50 285 50Z" fill="#96823C"/>
<path d="M179 211H133C117.536 211 105 223.536 105 239V257C105 272.464 117.536 285 133 285H179C194.464 285 207 272.464 207 257V239C207 223.536 194.464 211 179 211Z" fill="#98553A"/>
<path d="M370 211H322C306.536 211 294 223.536 294 239V257C294 272.464 306.536 285 322 285H370C385.464 285 398 272.464 398 257V239C398 223.536 385.464 211 370 211Z" fill="#98553A"/>
<path d="M299 345H251C235.536 345 223 357.536 223 373V391C223 406.464 235.536 419 251 419H299C314.464 419 327 406.464 327 391V373C327 357.536 314.464 345 299 345Z" fill="#244B64"/>
<path d="M441 345H393C377.536 345 365 357.536 365 373V391C365 406.464 377.536 419 393 419H441C456.464 419 469 406.464 469 391V373C469 357.536 456.464 345 441 345Z" fill="#244B64"/>
<path d="M251.5 124.863C251.5 124.863 206.109 124.672 182.292 146.206C158.475 167.74 156.23 211 156.23 211" stroke="#707070" stroke-width="3"/>
<path d="M345.988 211C345.988 211 347.244 170.056 323.622 148.543C300 127.03 251.5 124.949 251.5 124.949" stroke="#707070" stroke-width="3"/>
<path d="M274.5 345.5C274.5 345.5 277.587 322.987 295.337 307.987C313.087 292.987 345.5 285.5 345.5 285.5" stroke="#707070" stroke-width="3"/>
<path d="M416.5 345.5C416.5 345.5 420.524 319.981 402.774 304.981C385.024 289.981 345.5 285.5 345.5 285.5" stroke="#707070" stroke-width="3"/>
</svg>
