<svg width="512" height="512" viewBox="0 0 512 512" fill="none" xmlns="http://www.w3.org/2000/svg">
<path d="M467 0H45C20.1472 0 0 20.1472 0 45V467C0 491.853 20.1472 512 45 512H467C491.853 512 512 491.853 512 467V45C512 20.1472 491.853 0 467 0Z" fill="#082233"/>
<path d="M362.225 186.5C368.92 193.23 374.965 200.576 380.282 208.44C385.703 216.467 390.334 225 394.111 233.919C397.947 242.993 400.875 252.424 402.852 262.075C404.881 272.025 405.903 282.154 405.901 292.309H330.901C330.92 282.28 328.916 272.351 325.007 263.115C323.118 258.655 320.802 254.388 318.091 250.375C315.549 246.615 312.674 243.092 309.5 239.848L362.224 186.501L362.225 186.5Z" fill="#244B64"/>
<path d="M256.5 218.5C246.472 218.481 236.542 220.486 227.307 224.394C222.847 226.283 218.58 228.599 214.567 231.31C210.584 234.003 206.867 237.069 203.467 240.468C200.068 243.868 197.002 247.585 194.309 251.568C191.598 255.582 189.283 259.848 187.394 264.308C183.486 273.543 181.481 283.472 181.5 293.5H106.5C106.497 283.347 107.518 273.219 109.547 263.27C111.524 253.619 114.452 244.188 118.288 235.114C122.064 226.194 126.696 217.661 132.117 209.634C137.502 201.668 143.636 194.234 150.434 187.434C157.234 180.636 164.668 174.502 172.634 169.117C180.661 163.696 189.194 159.064 198.113 155.288C207.187 151.452 216.618 148.524 226.269 146.547C236.218 144.519 246.346 143.498 256.5 143.5V218.5Z" fill="#650306"/>
<path d="M309.509 240.431C306.152 237.082 302.488 234.057 298.564 231.395C294.555 228.68 290.293 226.36 285.837 224.467C276.613 220.554 266.692 218.547 256.672 218.567V143.425C266.816 143.423 276.934 144.446 286.872 146.479C296.515 148.46 305.937 151.393 315.001 155.236C323.914 159.021 332.439 163.661 340.456 169.092C348.16 174.316 355.364 180.242 361.977 186.792C342.766 206.527 325.115 224.576 309.512 240.439L309.509 240.431Z" fill="#96823C"/>
<path d="M208.024 175.765L247.051 282.724C247.051 282.724 256.311 288.081 261.489 285.744C266.667 283.407 267.762 273.373 267.762 273.373L208.024 175.765Z" fill="#707070" stroke="#707070"/>
</svg>
