<svg width="512" height="512" viewBox="0 0 512 512" fill="none" xmlns="http://www.w3.org/2000/svg">
<path d="M467 0H45C20.1472 0 0 20.1472 0 45V467C0 491.853 20.1472 512 45 512H467C491.853 512 512 491.853 512 467V45C512 20.1472 491.853 0 467 0Z" fill="#082233"/>
<path d="M78.5 70.2539V431.5" stroke="#707070" stroke-width="5"/>
<path d="M447.697 431.5H78.5" stroke="#707070" stroke-width="5"/>
<path d="M162 178C186.853 178 207 157.853 207 133C207 108.147 186.853 88 162 88C137.147 88 117 108.147 117 133C117 157.853 137.147 178 162 178Z" fill="#96823C"/>
<path d="M306.5 223C318.926 223 329 212.926 329 200.5C329 188.074 318.926 178 306.5 178C294.074 178 284 188.074 284 200.5C284 212.926 294.074 223 306.5 223Z" fill="#98553A"/>
<path d="M284 136C289.523 136 294 131.523 294 126C294 120.477 289.523 116 284 116C278.477 116 274 120.477 274 126C274 131.523 278.477 136 284 136Z" fill="#244B64"/>
<path d="M161 378C175.359 378 187 366.359 187 352C187 337.641 175.359 326 161 326C146.641 326 135 337.641 135 352C135 366.359 146.641 378 161 378Z" fill="#244B64"/>
<path d="M389 269C408.33 269 424 253.33 424 234C424 214.67 408.33 199 389 199C369.67 199 354 214.67 354 234C354 253.33 369.67 269 389 269Z" fill="#775F22"/>
<path d="M257.5 331C278.211 331 295 314.211 295 293.5C295 272.789 278.211 256 257.5 256C236.789 256 220 272.789 220 293.5C220 314.211 236.789 331 257.5 331Z" fill="#4F3D0D"/>
<path d="M348.5 387C360.926 387 371 376.926 371 364.5C371 352.074 360.926 342 348.5 342C336.074 342 326 352.074 326 364.5C326 376.926 336.074 387 348.5 387Z" fill="#98553A"/>
</svg>
