<svg width="512" height="512" viewBox="0 0 512 512" fill="none" xmlns="http://www.w3.org/2000/svg">
<path d="M467 0H45C20.1472 0 0 20.1472 0 45V467C0 491.853 20.1472 512 45 512H467C491.853 512 512 491.853 512 467V45C512 20.1472 491.853 0 467 0Z" fill="#082233"/>
<path d="M220 47H149V121H220V47Z" fill="#4F3D0D"/>
<path d="M463 47H392V121H463V47Z" fill="#4F3D0D"/>
<path d="M139 47H68V121H139V47Z" fill="#2F2508"/>
<path d="M301 47H230V121H301V47Z" fill="#987519"/>
<path d="M382 47H311V121H382V47Z" fill="#987519"/>
<path d="M220 131H149V205H220V131Z" fill="#4F3D0D"/>
<path d="M463 131H392V205H463V131Z" fill="#4F3D0D"/>
<path d="M139 131H68V205H139V131Z" fill="#2F2508"/>
<path d="M301 131H230V205H301V131Z" fill="#987519"/>
<path d="M382 131H311V205H382V131Z" fill="#987519"/>
<path d="M220 215H149V289H220V215Z" fill="#4F3D0D"/>
<path d="M463 215H392V289H463V215Z" fill="#987519"/>
<path d="M139 215H68V289H139V215Z" fill="#4F3D0D"/>
<path d="M301 215H230V289H301V215Z" fill="#987519"/>
<path d="M382 215H311V289H382V215Z" fill="#4F3D0D"/>
<path d="M220 299H149V373H220V299Z" fill="#987519"/>
<path d="M463 299H392V373H463V299Z" fill="#4F3D0D"/>
<path d="M139 299H68V373H139V299Z" fill="#4F3D0D"/>
<path d="M301 299H230V373H301V299Z" fill="#4F3D0D"/>
<path d="M382 299H311V373H382V299Z" fill="#4F3D0D"/>
<path d="M220 383H149V457H220V383Z" fill="#4F3D0D"/>
<path d="M463 383H392V457H463V383Z" fill="#4F3D0D"/>
<path d="M139 383H68V457H139V383Z" fill="#987519"/>
<path d="M301 383H230V457H301V383Z" fill="#4F3D0D"/>
<path d="M382 383H311V457H382V383Z" fill="#2F2508"/>
</svg>
