<svg width="512" height="512" viewBox="0 0 512 512" fill="none" xmlns="http://www.w3.org/2000/svg">
<path d="M467 0H45C20.1472 0 0 20.1472 0 45V467C0 491.853 20.1472 512 45 512H467C491.853 512 512 491.853 512 467V45C512 20.1472 491.853 0 467 0Z" fill="#082233"/>
<path d="M467 0.5H45C20.4233 0.5 0.5 20.4233 0.5 45V467C0.5 491.577 20.4233 511.5 45 511.5H467C491.577 511.5 511.5 491.577 511.5 467V45C511.5 20.4233 491.577 0.5 467 0.5Z" stroke="#707070"/>
<path d="M78.5 70.254V431.5" stroke="#707070" stroke-width="5"/>
<path d="M447.697 431.5H78.5" stroke="#707070" stroke-width="5"/>
<path d="M256.5 196.5L352.5 332.5L256.5 196.5ZM424.5 93.5L352.5 325.5L424.5 93.5ZM256.5 196.5L182.5 306.5L256.5 196.5ZM110.5 196.5L182.5 306.5L110.5 196.5Z" fill="#75B3BE"/>
<path d="M101.5 229.5L151.832 313.474L205.282 229.5L401.8 220.463L450.766 96.5859" stroke="#98553A" stroke-width="8"/>
<path d="M90.5 172.5L215.343 364.649L300.52 320.792L353.4 216.783H450.41" stroke="#96823C" stroke-width="8"/>
<path d="M99.3479 370.487L215.348 285.649L300.525 241.792L353.653 331.156H444.146" stroke="#75B3BE" stroke-width="8"/>
</svg>
