<svg width="512" height="512" viewBox="0 0 512 512" fill="none" xmlns="http://www.w3.org/2000/svg">
<path d="M467 0H45C20.1472 0 0 20.1472 0 45V467C0 491.853 20.1472 512 45 512H467C491.853 512 512 491.853 512 467V45C512 20.1472 491.853 0 467 0Z" fill="#082233"/>
<path d="M78.5 70.2539V431.5" stroke="#707070" stroke-width="5"/>
<path d="M447.697 431.5H78.5" stroke="#707070" stroke-width="5"/>
<path d="M267 388C349.843 388 417 320.843 417 238C417 155.157 349.843 88 267 88C184.157 88 117 155.157 117 238C117 320.843 184.157 388 267 388Z" fill="#96823C"/>
<path d="M194 224C221.614 224 244 201.614 244 174C244 146.386 221.614 124 194 124C166.386 124 144 146.386 144 174C144 201.614 166.386 224 194 224Z" fill="#98553A"/>
<path d="M373.5 179C383.165 179 391 171.165 391 161.5C391 151.835 383.165 144 373.5 144C363.835 144 356 151.835 356 161.5C356 171.165 363.835 179 373.5 179Z" fill="#244B64"/>
<path d="M144 259C158.359 259 170 247.359 170 233C170 218.641 158.359 207 144 207C129.641 207 118 218.641 118 233C118 247.359 129.641 259 144 259Z" fill="#244B64"/>
<path d="M307 289C345.66 289 377 257.66 377 219C377 180.34 345.66 149 307 149C268.34 149 237 180.34 237 219C237 257.66 268.34 289 307 289Z" fill="#775F22"/>
<path d="M301 382C325.853 382 346 361.853 346 337C346 312.147 325.853 292 301 292C276.147 292 256 312.147 256 337C256 361.853 276.147 382 301 382Z" fill="#4F3D0D"/>
<path d="M201 358C234.137 358 261 331.137 261 298C261 264.863 234.137 238 201 238C167.863 238 141 264.863 141 298C141 331.137 167.863 358 201 358Z" fill="#98553A"/>
<path d="M264 158C282.778 158 298 142.778 298 124C298 105.222 282.778 90 264 90C245.222 90 230 105.222 230 124C230 142.778 245.222 158 264 158Z" fill="#4F3D0D"/>
</svg>
