<svg width="512" height="512" viewBox="0 0 512 512" fill="none" xmlns="http://www.w3.org/2000/svg">
<path d="M467 0H45C20.1472 0 0 20.1472 0 45V467C0 491.853 20.1472 512 45 512H467C491.853 512 512 491.853 512 467V45C512 20.1472 491.853 0 467 0Z" fill="#082233"/>
<path d="M256.5 196.5L352.5 332.5L256.5 196.5ZM424.5 93.5L352.5 325.5L424.5 93.5ZM256.5 196.5L182.5 306.5L256.5 196.5ZM110.5 196.5L182.5 306.5L110.5 196.5Z" fill="#75B3BE"/>
<path d="M76.1 256.5H435.779" stroke="#98553A" stroke-width="5"/>
<path d="M104.213 268.007C111.047 274.841 122.127 274.841 128.961 268.007C135.796 261.173 135.796 250.093 128.961 243.258C122.127 236.424 111.047 236.424 104.213 243.258C97.3785 250.093 97.3785 261.173 104.213 268.007Z" fill="#98553A"/>
<path d="M269.545 279.754C282.433 292.641 303.327 292.641 316.215 279.754C329.102 266.866 329.102 245.972 316.215 233.085C303.327 220.197 282.433 220.197 269.545 233.085C256.658 245.972 256.658 266.866 269.545 279.754Z" fill="#98553A"/>
<path d="M414.516 263.097C418.421 267.002 424.753 267.002 428.658 263.097C432.563 259.192 432.563 252.86 428.658 248.955C424.753 245.05 418.421 245.05 414.516 248.955C410.611 252.86 410.611 259.192 414.516 263.097Z" fill="#98553A"/>
</svg>
