<svg width="512" height="512" viewBox="0 0 512 512" fill="none" xmlns="http://www.w3.org/2000/svg">
<path d="M467 0H45C20.1472 0 0 20.1472 0 45V467C0 491.853 20.1472 512 45 512H467C491.853 512 512 491.853 512 467V45C512 20.1472 491.853 0 467 0Z" fill="#082233"/>
<path d="M78.5 70.254V431.5" stroke="#707070" stroke-width="5"/>
<path d="M447.697 431.5H78.5" stroke="#707070" stroke-width="5"/>
<path d="M256.5 196.5L352.5 332.5L256.5 196.5ZM424.5 93.5L352.5 325.5L424.5 93.5ZM256.5 196.5L182.5 306.5L256.5 196.5ZM110.5 196.5L182.5 306.5L110.5 196.5Z" fill="#75B3BE"/>
<path d="M111.174 317.675C111.174 317.675 120.622 203 164.5 203C208.378 203 224.866 323.929 269.468 317.672C314.07 311.415 328.712 184.22 368.127 184.22C407.542 184.22 425.481 317.674 425.481 317.674" stroke="#98553A" stroke-width="3"/>
<path d="M120.866 267.4H217.646C217.646 267.4 213.661 258.325 208.298 248.307C202.935 238.289 195.419 227.246 195.419 227.246C195.419 227.246 188.052 215.746 180.469 210.385C172.886 205.024 170.521 204.135 164.439 204.135C158.76 204.135 154.689 205.245 146.909 212.035C139.129 218.825 132.749 232.077 132.749 232.077L126.749 246.577L120.866 267.4Z" fill="#96823C"/>
<path d="M314.023 267.5H414.646C414.646 267.5 405.084 231.016 399.508 220.982C399.18 220.391 400.501 220.973 395.101 208.544C393.062 203.85 381.849 191.28 381.849 191.28C381.849 191.28 375.065 187.19 374.481 186.83C358.815 177.187 340.902 206.221 337.671 213.743L314.023 267.5Z" fill="#96823C"/>
<path d="M310.749 267.13H219.866C219.866 267.13 223.851 276.205 229.214 286.223C234.577 296.241 245.241 306.064 245.241 306.064C245.241 306.064 258.72 321.303 274.241 315.596C288.612 310.313 304.926 284.441 310.749 267.13Z" fill="#244B64"/>
<path d="M417.46 267.5L427.035 317.829L442.935 267.5H417.46Z" fill="#244B64"/>
<path d="M92.6951 267.499L109.665 317.489L117.989 267.499H92.6951Z" fill="#244B64"/>
</svg>
