<svg width="512" height="512" viewBox="0 0 512 512" fill="none" xmlns="http://www.w3.org/2000/svg">
<path d="M467 0H45C20.1472 0 0 20.1472 0 45V467C0 491.853 20.1472 512 45 512H467C491.853 512 512 491.853 512 467V45C512 20.1472 491.853 0 467 0Z" fill="#082233"/>
<path d="M213 54H61V380H213V54Z" fill="#650306"/>
<path d="M289 54H218V212H289V54Z" fill="#987519"/>
<path d="M451 217H218V380H451V217Z" fill="#4F3D0D"/>
<path d="M451 385H61V459H451V385Z" fill="#987519"/>
<path d="M446 54H294V212H446V54Z" fill="#244B64"/>
</svg>
