<svg width="512" height="512" viewBox="0 0 512 512" fill="none" xmlns="http://www.w3.org/2000/svg">
<path d="M467 0H45C20.1472 0 0 20.1472 0 45V467C0 491.853 20.1472 512 45 512H467C491.853 512 512 491.853 512 467V45C512 20.1472 491.853 0 467 0Z" fill="#082233"/>
<path d="M132 96H62V416H132V96Z" fill="#96823C"/>
<path d="M238 335H168V416H238V335Z" fill="#244B64"/>
<path d="M344 182H274V416H344V182Z" fill="#76351F"/>
<path d="M450 270H380V416H450V270Z" fill="#98553A"/>
<path d="M309.5 262.5L415.5 342.5L309.5 262.5ZM203.5 262.5L97.5 342.5L203.5 262.5Z" stroke="#75B3BE" stroke-width="6"/>
</svg>
