<svg width="512" height="512" viewBox="0 0 512 512" fill="none" xmlns="http://www.w3.org/2000/svg">
<path d="M467 0H45C20.1472 0 0 20.1472 0 45V467C0 491.853 20.1472 512 45 512H467C491.853 512 512 491.853 512 467V45C512 20.1472 491.853 0 467 0Z" fill="#082233"/>
<path d="M110 96H62V416H110V96Z" fill="#96823C"/>
<path d="M165 335H117V416H165V335Z" fill="#244B64"/>
<path d="M244 159H196V416H244V159Z" fill="#96823C"/>
<path d="M299 264H251V416H299V264Z" fill="#244B64"/>
<path d="M378 305H330V416H378V305Z" fill="#96823C"/>
<path d="M433 159H385V416H433V159Z" fill="#244B64"/>
</svg>
