<svg width="512" height="512" viewBox="0 0 512 512" fill="none" xmlns="http://www.w3.org/2000/svg">
<path d="M467 0H45C20.1472 0 0 20.1472 0 45V467C0 491.853 20.1472 512 45 512H467C491.853 512 512 491.853 512 467V45C512 20.1472 491.853 0 467 0Z" fill="#082233"/>
<path d="M332 349H272V460H332V349Z" fill="#96823C"/>
<path d="M332 317H272V349H332V317Z" fill="#244B64"/>
<path d="M332 237H272V317H332V237Z" fill="#76351F"/>
<path d="M332 51H272V237H332V51Z" fill="#98553A"/>
<path d="M423 429H363V460H423V429Z" fill="#96823C"/>
<path d="M423 326H363V429H423V326Z" fill="#244B64"/>
<path d="M423 197H363V325H423V197Z" fill="#76351F"/>
<path d="M423 51H363V197H423V51Z" fill="#98553A"/>
<path d="M150 420H90V461H150V420Z" fill="#96823C"/>
<path d="M150 325H90V420H150V325Z" fill="#244B64"/>
<path d="M150 114H90V326H150V114Z" fill="#76351F"/>
<path d="M150 52H90V114H150V52Z" fill="#98553A"/>
<path d="M241 380H181V461H241V380Z" fill="#96823C"/>
<path d="M241 325H181V382H241V325Z" fill="#244B64"/>
<path d="M241 197H181V325H241V197Z" fill="#76351F"/>
<path d="M241 51H181V197H241V51Z" fill="#98553A"/>
</svg>
